<svg width="176" height="176" viewBox="0 0 176 176" fill="none" xmlns="http://www.w3.org/2000/svg">
<rect width="176" height="176" fill="#EFF0E8"/>
<path d="M106.253 91.0821C111.228 87.189 114.86 81.8505 116.642 75.8093C118.425 69.768 118.27 63.3244 116.199 57.3749C114.127 51.4254 110.243 46.2659 105.086 42.6141C99.9288 38.9624 93.7555 37 87.4247 37C81.094 37 74.9207 38.9624 69.7636 42.6141C64.6065 46.2659 60.7222 51.4254 58.6509 57.3749C56.5797 63.3244 56.4245 69.768 58.2071 75.8093C59.9897 81.8505 63.6213 87.189 68.5967 91.0821C60.0712 94.479 52.6324 100.113 47.0734 107.384C41.5143 114.654 38.0434 123.289 37.0306 132.367C36.9573 133.03 37.016 133.701 37.2033 134.341C37.3906 134.981 37.7029 135.578 38.1223 136.099C38.9693 137.149 40.2013 137.822 41.5473 137.97C42.8933 138.117 44.2429 137.726 45.2993 136.884C46.3558 136.041 47.0324 134.816 47.1805 133.478C48.2949 123.612 53.0252 114.5 60.4678 107.883C67.9103 101.266 77.5433 97.6081 87.5262 97.6081C97.5091 97.6081 107.142 101.266 114.585 107.883C122.027 114.5 126.758 123.612 127.872 133.478C128.01 134.718 128.605 135.863 129.542 136.693C130.479 137.522 131.692 137.977 132.947 137.97H133.505C134.835 137.817 136.051 137.148 136.888 136.108C137.724 135.068 138.114 133.742 137.971 132.418C136.954 123.314 133.464 114.657 127.876 107.375C122.289 100.093 114.814 94.461 106.253 91.0821ZM87.4247 87.4986C83.4098 87.4986 79.4851 86.3146 76.1468 84.0963C72.8085 81.878 70.2066 78.725 68.6702 75.036C67.1338 71.3471 66.7318 67.2879 67.515 63.3717C68.2983 59.4556 70.2317 55.8583 73.0706 53.035C75.9096 50.2116 79.5267 48.2888 83.4644 47.5098C87.4022 46.7309 91.4838 47.1307 95.1931 48.6587C98.9024 50.1867 102.073 52.7743 104.303 56.0942C106.534 59.4142 107.724 63.3174 107.724 67.3103C107.724 72.6646 105.586 77.7996 101.779 81.5856C97.9719 85.3717 92.8086 87.4986 87.4247 87.4986Z" fill="#054A29"/>
</svg>
